<mxfile host="Electron" agent="Mozilla/5.0 (Windows NT 10.0; Win64; x64) AppleWebKit/537.36 (KHTML, like Gecko) draw.io/27.0.9 Chrome/134.0.6998.205 Electron/35.4.0 Safari/537.36" version="27.0.9">
  <diagram name="Page-1" id="_4sG97a3IQuU2LRvNZqm">
    <mxGraphModel dx="798" dy="1240" grid="1" gridSize="10" guides="1" tooltips="1" connect="1" arrows="1" fold="1" page="1" pageScale="1" pageWidth="1169" pageHeight="827" math="0" shadow="0">
      <root>
        <mxCell id="0" />
        <mxCell id="1" parent="0" />
        <mxCell id="onjsXxYa9aYCMshfLZ6c-1" value="&lt;font style=&quot;color: rgb(255, 0, 0);&quot;&gt;#6&amp;nbsp;&lt;/font&gt;&lt;div&gt;&lt;font style=&quot;color: rgb(255, 0, 0);&quot;&gt;&lt;br&gt;&lt;/font&gt;&lt;/div&gt;&lt;div&gt;&lt;font style=&quot;color: rgb(255, 0, 0);&quot;&gt;This flowchart for a program ask to the user to enter:&lt;/font&gt;&lt;/div&gt;&lt;div&gt;&lt;font style=&quot;color: rgb(255, 0, 0);&quot;&gt;.First Name&amp;nbsp;&lt;/font&gt;&lt;/div&gt;&lt;div&gt;&lt;font style=&quot;color: rgb(255, 0, 0);&quot;&gt;.Last Name&amp;nbsp;&lt;/font&gt;&lt;/div&gt;&lt;div&gt;&lt;font style=&quot;color: rgb(255, 0, 0);&quot;&gt;Than print full Name on screen&lt;/font&gt;&lt;/div&gt;&lt;div&gt;&lt;br&gt;&lt;/div&gt;" style="text;html=1;align=left;verticalAlign=middle;resizable=0;points=[];autosize=1;strokeColor=none;fillColor=none;" parent="1" vertex="1">
          <mxGeometry x="40" y="-80" width="300" height="110" as="geometry" />
        </mxCell>
        <mxCell id="onjsXxYa9aYCMshfLZ6c-7" value="" style="edgeStyle=orthogonalEdgeStyle;rounded=0;orthogonalLoop=1;jettySize=auto;html=1;" parent="1" source="onjsXxYa9aYCMshfLZ6c-2" target="onjsXxYa9aYCMshfLZ6c-4" edge="1">
          <mxGeometry relative="1" as="geometry" />
        </mxCell>
        <mxCell id="onjsXxYa9aYCMshfLZ6c-2" value="Start" style="ellipse;whiteSpace=wrap;html=1;fillColor=#00FF00;fontColor=#ffffff;strokeColor=#005700;" parent="1" vertex="1">
          <mxGeometry x="370" y="-140" width="120" height="80" as="geometry" />
        </mxCell>
        <mxCell id="onjsXxYa9aYCMshfLZ6c-3" value="End" style="ellipse;whiteSpace=wrap;html=1;fillColor=#FF0000;" parent="1" vertex="1">
          <mxGeometry x="370" y="330" width="120" height="80" as="geometry" />
        </mxCell>
        <mxCell id="onjsXxYa9aYCMshfLZ6c-8" value="" style="edgeStyle=orthogonalEdgeStyle;rounded=0;orthogonalLoop=1;jettySize=auto;html=1;" parent="1" source="onjsXxYa9aYCMshfLZ6c-4" target="onjsXxYa9aYCMshfLZ6c-5" edge="1">
          <mxGeometry relative="1" as="geometry" />
        </mxCell>
        <mxCell id="onjsXxYa9aYCMshfLZ6c-4" value="&lt;font style=&quot;&quot;&gt;Read:&amp;nbsp;&lt;span style=&quot;text-align: left; text-wrap-mode: nowrap; background-color: transparent;&quot;&gt;&amp;nbsp;firstName&lt;/span&gt;&lt;/font&gt;&lt;div&gt;&lt;font&gt;&lt;font style=&quot;color: rgb(255, 255, 255);&quot;&gt;&lt;span style=&quot;text-align: left; text-wrap-mode: nowrap; background-color: transparent;&quot;&gt;Read:&amp;nbsp;&lt;/span&gt;&lt;/font&gt;&lt;span style=&quot;text-align: left; text-wrap-mode: nowrap; background-color: transparent;&quot;&gt;lastName&lt;/span&gt;&lt;span style=&quot;background-color: transparent; text-wrap-mode: nowrap; text-align: left;&quot;&gt;&amp;nbsp;&lt;/span&gt;&lt;span style=&quot;background-color: transparent; text-wrap-mode: nowrap; text-align: left;&quot;&gt;&amp;nbsp;&lt;/span&gt;&lt;/font&gt;&lt;/div&gt;" style="shape=parallelogram;perimeter=parallelogramPerimeter;whiteSpace=wrap;html=1;fixedSize=1;fillColor=#6666FF;" parent="1" vertex="1">
          <mxGeometry x="370" y="-20" width="120" height="60" as="geometry" />
        </mxCell>
        <mxCell id="onjsXxYa9aYCMshfLZ6c-9" value="" style="edgeStyle=orthogonalEdgeStyle;rounded=0;orthogonalLoop=1;jettySize=auto;html=1;" parent="1" source="onjsXxYa9aYCMshfLZ6c-5" target="onjsXxYa9aYCMshfLZ6c-6" edge="1">
          <mxGeometry relative="1" as="geometry" />
        </mxCell>
        <mxCell id="onjsXxYa9aYCMshfLZ6c-5" value="&lt;font&gt;&lt;span style=&quot;text-align: left; text-wrap-mode: nowrap;&quot;&gt;fullName&lt;/span&gt;&lt;/font&gt;&lt;div&gt;&lt;font&gt;&lt;span style=&quot;text-align: left; text-wrap-mode: nowrap;&quot;&gt;&amp;nbsp;=&lt;/span&gt;&lt;/font&gt;&lt;div&gt;&lt;font&gt;&lt;span style=&quot;text-align: left; text-wrap-mode: nowrap;&quot;&gt;&amp;nbsp;&quot;&lt;/span&gt;&lt;span style=&quot;text-align: left; text-wrap-mode: nowrap; background-color: transparent;&quot;&gt;&amp;nbsp;firstName&amp;nbsp;&lt;/span&gt;&lt;span style=&quot;text-align: left; text-wrap-mode: nowrap; background-color: transparent;&quot;&gt;&amp;nbsp;&quot;&amp;nbsp;&lt;/span&gt;&lt;/font&gt;&lt;/div&gt;&lt;div&gt;&lt;font&gt;&lt;span style=&quot;text-align: left; text-wrap-mode: nowrap; background-color: transparent;&quot;&gt;+&lt;/span&gt;&lt;/font&gt;&lt;/div&gt;&lt;div&gt;&lt;font&gt;&lt;span style=&quot;text-align: left; text-wrap-mode: nowrap; background-color: transparent;&quot;&gt;&amp;nbsp; &quot;&lt;/span&gt;&lt;span style=&quot;text-align: left; text-wrap-mode: nowrap;&quot;&gt;lastName&quot;&lt;/span&gt;&lt;/font&gt;&lt;/div&gt;&lt;/div&gt;" style="rounded=0;whiteSpace=wrap;html=1;fillColor=#FF8000;" parent="1" vertex="1">
          <mxGeometry x="370" y="84" width="120" height="76" as="geometry" />
        </mxCell>
        <mxCell id="onjsXxYa9aYCMshfLZ6c-10" value="" style="edgeStyle=orthogonalEdgeStyle;rounded=0;orthogonalLoop=1;jettySize=auto;html=1;" parent="1" source="onjsXxYa9aYCMshfLZ6c-6" target="onjsXxYa9aYCMshfLZ6c-3" edge="1">
          <mxGeometry relative="1" as="geometry" />
        </mxCell>
        <mxCell id="onjsXxYa9aYCMshfLZ6c-6" value="Print:&amp;nbsp;&lt;div&gt;fullName&lt;/div&gt;" style="shape=parallelogram;perimeter=parallelogramPerimeter;whiteSpace=wrap;html=1;fixedSize=1;fillColor=#3333FF;" parent="1" vertex="1">
          <mxGeometry x="370" y="210" width="120" height="60" as="geometry" />
        </mxCell>
      </root>
    </mxGraphModel>
  </diagram>
</mxfile>
